<?xml version="1.0" encoding="UTF-8"?>
<svg width="156px" height="42px" viewBox="0 0 156 42" version="1.1" xmlns="http://www.w3.org/2000/svg" xmlns:xlink="http://www.w3.org/1999/xlink">
    <!-- Generator: Sketch 55.2 (78181) - https://sketchapp.com -->
    <title>Logo@2x</title>
    <desc>Created with Sketch.</desc>
    <g id="Page-1" stroke="none" stroke-width="1" fill="none" fill-rule="evenodd">
        <g id="Logo" transform="translate(-1.000000, -1.000000)">
            <g id="Group-3" transform="translate(55.000000, 4.000000)" fill="#000000" fill-rule="nonzero">
                <path d="M8.90113761,20.2266667 C4.62959332,20.2266667 1.66257712,18.9819612 8.52651283e-14,16.4925128 L3.0693578,13.3029231 C3.58091999,14.4179885 4.31627961,15.2024123 5.27545872,15.6562179 C6.23463782,16.1100236 7.41760764,16.3369231 8.82440367,16.3369231 C9.94984049,16.3369231 10.8194832,16.1813349 11.4333578,15.8701538 C12.0472324,15.5589728 12.3541651,15.1311053 12.3541651,14.5865385 C12.3541651,14.1456987 12.0664157,13.7696939 11.4909083,13.4585128 C10.9154008,13.1473318 9.92426391,12.8491211 8.51746789,12.5638718 C5.57598529,11.9674415 3.51058393,11.1830177 2.32120183,10.2105769 C1.13181974,9.23813616 0.537137615,7.92211941 0.537137615,6.26248718 C0.537137615,5.17335353 0.869648051,4.14906463 1.5346789,3.18958974 C2.19970975,2.23011486 3.18445219,1.45865676 4.48893578,0.875192308 C5.79341937,0.291727852 7.35366064,-1.42108547e-13 9.16970642,-1.42108547e-13 C11.3182676,-1.42108547e-13 13.057553,0.330624899 14.3876147,0.991884615 C15.7176764,1.65314433 16.8303075,2.69688176 17.7255413,4.12312821 L14.4643486,6.92374359 C13.9016302,5.88647345 13.2046372,5.12149819 12.3733486,4.62879487 C11.5420601,4.13609155 10.4997677,3.88974359 9.24644037,3.88974359 C8.19773788,3.88974359 7.36006735,4.07126314 6.73340367,4.43430769 C6.10673999,4.79735224 5.79341284,5.23818544 5.79341284,5.75682051 C5.79341284,6.30138734 6.10034555,6.75518622 6.71422018,7.11823077 C7.32809481,7.48127532 8.41514816,7.81838306 9.97541284,8.1295641 C12.7634268,8.70006268 14.7393061,9.44558941 15.9031101,10.3661667 C17.0669141,11.2867439 17.6488073,12.5638636 17.6488073,14.1975641 C17.6488073,16.0127869 16.88787,17.4714261 15.3659725,18.5735256 C13.844075,19.6756252 11.6891516,20.2266667 8.90113761,20.2266667 Z M38.8721375,10.0355385 C38.8721375,10.7616276 38.820982,11.4617744 38.7186696,12.136 L25.1367613,12.136 C25.6739016,14.8847659 27.2725095,16.2591282 29.9326329,16.2591282 C31.0324916,16.2591282 31.9405009,16.0516773 32.6566879,15.6367692 C33.372875,15.2218612 33.8716407,14.6254398 34.1529999,13.8474872 L38.4501008,15.4422821 C37.8362262,16.9981873 36.8067227,18.1845472 35.3615595,19.0013974 C33.9163963,19.8182477 32.1067722,20.2266667 29.9326329,20.2266667 C26.7609473,20.2266667 24.3054856,19.3385174 22.5661742,17.5621923 C20.8268627,15.7858672 19.9572201,13.302939 19.9572201,10.1133333 C19.9572201,6.92372764 20.801285,4.44079948 22.4894402,2.66447436 C24.1775955,0.888149238 26.556324,-1.42108547e-13 29.6256971,-1.42108547e-13 C32.5927578,-1.42108547e-13 34.8755699,0.868700715 36.4742017,2.60612821 C38.0728336,4.3435557 38.8721375,6.82000102 38.8721375,10.0355385 Z M29.5873301,3.92864103 C28.3084247,3.92864103 27.2917101,4.30464581 26.5371558,5.05666667 C25.7826016,5.80868752 25.3030192,6.9237362 25.0983944,8.40184615 L34.037899,8.40184615 C33.8332741,6.94966795 33.3472973,5.84110212 32.579954,5.07611538 C31.8126107,4.31112865 30.8150794,3.92864103 29.5873301,3.92864103 Z M59.9036328,0.388974359 L52.613908,19.8376923 L46.5519263,19.8376923 L39.2622016,0.388974359 L44.9021465,0.388974359 L49.6212841,16.1035385 L54.4555227,0.388974359 L59.9036328,0.388974359 Z M79.669018,10.0355385 C79.669018,10.7616276 79.6178625,11.4617744 79.5155501,12.136 L65.9336418,12.136 C66.4707821,14.8847659 68.06939,16.2591282 70.7295134,16.2591282 C71.8293721,16.2591282 72.7373813,16.0516773 73.4535684,15.6367692 C74.1697555,15.2218612 74.6685211,14.6254398 74.9498803,13.8474872 L79.2469813,15.4422821 C78.6331066,16.9981873 77.6036032,18.1845472 76.15844,19.0013974 C74.7132768,19.8182477 72.9036527,20.2266667 70.7295134,20.2266667 C67.5578278,20.2266667 65.1023661,19.3385174 63.3630547,17.5621923 C61.6237432,15.7858672 60.7541005,13.302939 60.7541005,10.1133333 C60.7541005,6.92372764 61.5981655,4.44079948 63.2863207,2.66447436 C64.9744759,0.888149238 67.3532044,-1.42108547e-13 70.4225776,-1.42108547e-13 C73.3896383,-1.42108547e-13 75.6724503,0.868700715 77.2710822,2.60612821 C78.869714,4.3435557 79.669018,6.82000102 79.669018,10.0355385 Z M70.3842106,3.92864103 C69.1053051,3.92864103 68.0885905,4.30464581 67.3340363,5.05666667 C66.5794821,5.80868752 66.0998997,6.9237362 65.8952748,8.40184615 L74.8347794,8.40184615 C74.6301545,6.94966795 74.1441778,5.84110212 73.3768345,5.07611538 C72.6094912,4.31112865 71.6119599,3.92864103 70.3842106,3.92864103 Z M94.7152655,-1.42108547e-13 C96.7870924,-1.42108547e-13 98.456039,0.609387068 99.7221554,1.82817949 C100.988272,3.04697191 101.621321,4.79733902 101.621321,7.07933333 L101.621321,19.8376923 L96.3650454,19.8376923 L96.3650454,8.63523077 C96.3650454,5.67901086 95.2268365,4.20092308 92.9503848,4.20092308 C91.7226355,4.20092308 90.6803432,4.64175628 89.8234765,5.5234359 C88.9666099,6.40511552 88.538183,7.75354648 88.538183,9.56876923 L88.538183,19.8376923 L83.2819077,19.8376923 L83.2819077,0.388974359 L88.0010454,0.388974359 L88.1545132,3.85084615 C88.793966,2.58019023 89.6763975,1.62072974 90.8018343,0.972435897 C91.9272712,0.324142058 93.2317352,-1.42108547e-13 94.7152655,-1.42108547e-13 Z" id="seven-copy"></path>
                <path d="M18.5892661,32.4205385 L18.5892661,36.7248718 L17.3605872,36.7248718 L17.3240917,35.7505385 C16.8374838,36.4823199 16.0467578,36.8482051 14.9518899,36.8482051 C14.2138679,36.8482051 13.565067,36.6837623 13.0054679,36.3548718 C12.4458688,36.0259813 12.0099557,35.5470416 11.6977156,34.9180385 C11.3854755,34.2890353 11.2293578,33.538765 11.2293578,32.6672051 C11.2293578,31.8038675 11.3895305,31.0556527 11.7098807,30.4225385 C12.030231,29.7894242 12.4843916,29.3043179 13.0723761,28.9672051 C13.6603607,28.6300923 14.3476841,28.4615385 15.134367,28.4615385 C16.0021511,28.4615385 16.7097496,28.6218702 17.2571835,28.9425385 C17.8046174,29.2632067 18.2364755,29.7688683 18.5527706,30.4595385 L17.0077982,31.1378718 C16.8861462,30.7185364 16.6651484,30.3999284 16.3447982,30.1820385 C16.0244479,29.9641485 15.6371949,29.8552051 15.1830275,29.8552051 C14.4855561,29.8552051 13.9421854,30.0977583 13.5528991,30.5828718 C13.1636127,31.0679853 12.9689725,31.7586451 12.9689725,32.6548718 C12.9689725,33.5839876 13.1595577,34.2869805 13.5407339,34.7638718 C13.9219102,35.2407631 14.4815009,35.4792051 15.2195229,35.4792051 C15.7872322,35.4792051 16.2495028,35.3414843 16.6063486,35.0660385 C16.9631944,34.7905926 17.1416147,34.3897633 17.1416147,33.8635385 L17.1416147,33.6785385 L14.7937431,33.6785385 L14.7937431,32.4205385 L18.5892661,32.4205385 Z" id="Path-Copy"></path>
                <path d="M33.1078899,33.6045385 L31.5994128,33.6045385 L31.5994128,36.7248718 L29.9449541,36.7248718 L29.9449541,28.5848718 L33.4850092,28.5848718 C34.4014541,28.5848718 35.1171626,28.804814 35.632156,29.2447051 C36.1471494,29.6845962 36.4046422,30.3033123 36.4046422,31.1008718 C36.4046422,31.6846525 36.262717,32.1738698 35.9788624,32.5685385 C35.6950078,32.9632071 35.2895072,33.2468709 34.7623486,33.4195385 L36.8790826,36.7248718 L34.9934862,36.7248718 L33.1078899,33.6045385 Z M31.5994128,32.3095385 L33.2660367,32.3095385 C33.7526446,32.3095385 34.1115126,32.2129283 34.3426514,32.0197051 C34.5737901,31.8264819 34.6893578,31.5284294 34.6893578,31.1255385 C34.6893578,30.7226476 34.5737901,30.424595 34.3426514,30.2313718 C34.1115126,30.0381486 33.7526446,29.9415385 33.2660367,29.9415385 L31.5994128,29.9415385 L31.5994128,32.3095385 Z" id="Combined-Shape-Copy"></path>
                <path d="M52.5290642,28.4615385 C53.3157471,28.4615385 53.9990154,28.6300923 54.5788899,28.9672051 C55.1587644,29.3043179 55.604815,29.7873686 55.917055,30.4163718 C56.2292951,31.0453749 56.3854128,31.7915341 56.3854128,32.6548718 C56.3854128,33.5182094 56.2292951,34.2643686 55.917055,34.8933718 C55.604815,35.5223749 55.1587644,36.0054257 54.5788899,36.3425385 C53.9990154,36.6796513 53.3157471,36.8482051 52.5290642,36.8482051 C51.7423814,36.8482051 51.0570855,36.6796513 50.473156,36.3425385 C49.8892264,36.0054257 49.4411484,35.5223749 49.1289083,34.8933718 C48.8166682,34.2643686 48.6605505,33.5182094 48.6605505,32.6548718 C48.6605505,31.7915341 48.8166682,31.0453749 49.1289083,30.4163718 C49.4411484,29.7873686 49.8892264,29.3043179 50.473156,28.9672051 C51.0570855,28.6300923 51.7423814,28.4615385 52.5290642,28.4615385 Z M52.5290642,29.8552051 C51.8478131,29.8552051 51.3226899,30.0957027 50.9536789,30.5767051 C50.5846679,31.0577075 50.4001651,31.7504228 50.4001651,32.6548718 C50.4001651,33.5593208 50.5846679,34.2520361 50.9536789,34.7330385 C51.3226899,35.2140409 51.8478131,35.4545385 52.5290642,35.4545385 C53.2022052,35.4545385 53.7232734,35.2140409 54.0922844,34.7330385 C54.4612954,34.2520361 54.6457982,33.5593208 54.6457982,32.6548718 C54.6457982,31.7504228 54.4612954,31.0577075 54.0922844,30.5767051 C53.7232734,30.0957027 53.2022052,29.8552051 52.5290642,29.8552051 Z" id="Combined-Shape-Copy-2"></path>
                <path d="M74.2372844,33.5182051 C74.2372844,34.6199884 73.9473515,35.4504246 73.3674771,36.0095385 C72.7876026,36.5686524 71.934024,36.8482051 70.8067156,36.8482051 C69.6794072,36.8482051 68.8258286,36.5686524 68.2459541,36.0095385 C67.6660797,35.4504246 67.3761468,34.6199884 67.3761468,33.5182051 L67.3761468,28.5848718 L69.0549358,28.5848718 L69.0549358,33.4442051 C69.0549358,34.126653 69.1988885,34.6323146 69.4867982,34.9612051 C69.7747079,35.2900957 70.2146759,35.4545385 70.8067156,35.4545385 C71.3987553,35.4545385 71.8366958,35.2900957 72.1205505,34.9612051 C72.4044051,34.6323146 72.5463303,34.126653 72.5463303,33.4442051 L72.5463303,28.5848718 L74.2372844,28.5848718 L74.2372844,33.5182051 Z" id="Path-Copy-2"></path>
                <path d="M89.4614862,28.4615385 C90.3941515,28.4615385 91.1199974,28.6897028 91.6390459,29.1460385 C92.1580943,29.6023741 92.4176147,30.2457565 92.4176147,31.0762051 C92.4176147,31.8819869 92.1580943,32.5109806 91.6390459,32.9632051 C91.1199974,33.4154296 90.3941515,33.6415385 89.4614862,33.6415385 L87.7705321,33.6415385 L87.7705321,36.6015385 L86.0917431,36.6015385 L86.0917431,28.4615385 L89.4614862,28.4615385 Z M89.2060183,32.3218718 C89.7250668,32.3218718 90.1062373,32.2170395 90.3495413,32.0073718 C90.5928453,31.7977041 90.7144954,31.4832072 90.7144954,31.0638718 C90.7144954,30.6445364 90.5928453,30.332095 90.3495413,30.1265385 C90.1062373,29.9209819 89.7250668,29.8182051 89.2060183,29.8182051 L87.7705321,29.8182051 L87.7705321,32.3218718 L89.2060183,32.3218718 Z" id="Combined-Shape-Copy-3"></path>
            </g>
            <g id="Group-2">
                <g id="Group" transform="translate(3.193009, 23.504559)">
                    <path d="M4.25388294,0 L7.6391413,0 C11.5861307,0 14.7857978,3.19966712 14.7857978,7.14665653 L14.7857978,7.52279635 L4.25388294,7.52279635 C2.17652009,7.52279635 0.492484768,5.83876103 0.492484768,3.76139818 C0.492484768,1.68403533 2.17652009,0 4.25388294,0 Z" id="Rectangle" fill="#000000"></path>
                    <path d="M2.09293807,13.3038209 L12.0661387,1.50455927 C15.1009229,3.75901025 15.7335081,8.04678259 13.4790571,11.0815668 C13.3935974,11.1966066 13.3045462,11.3089344 13.2120352,11.4183839 L7.94430041,17.650624 C6.62169744,19.2153913 4.31057558,19.482524 2.66588631,18.2607333 C1.14849418,17.1335078 0.83220162,14.9896216 1.95942711,13.4722295 C2.00215693,13.4147096 2.04668253,13.3585457 2.09293807,13.3038209 L2.09293807,13.3038209 Z" id="Rectangle-Copy" fill="#00C7C7"></path>
                </g>
                <g id="Group-Copy" transform="translate(10.495441, 10.693009) rotate(90.000000) translate(-10.495441, -10.693009) translate(2.995441, 0.693009)">
                    <path d="M4.25388294,0 L7.6391413,0 C11.5861307,0 14.7857978,3.19966712 14.7857978,7.14665653 L14.7857978,7.52279635 L4.25388294,7.52279635 C2.17652009,7.52279635 0.492484768,5.83876103 0.492484768,3.76139818 C0.492484768,1.68403533 2.17652009,0 4.25388294,0 Z" id="Rectangle" fill="#000000"></path>
                    <path d="M2.09293807,13.3038209 L12.0661387,1.50455927 C15.1009229,3.75901025 15.7335081,8.04678259 13.4790571,11.0815668 C13.3935974,11.1966066 13.3045462,11.3089344 13.2120352,11.4183839 L7.94430041,17.650624 C6.62169744,19.2153913 4.31057558,19.482524 2.66588631,18.2607333 C1.14849418,17.1335078 0.83220162,14.9896216 1.95942711,13.4722295 C2.00215693,13.4147096 2.04668253,13.3585457 2.09293807,13.3038209 L2.09293807,13.3038209 Z" id="Rectangle-Copy" fill="#00C7C7"></path>
                </g>
                <g id="Group-Copy-2" transform="translate(33.306991, 10.495441) rotate(180.000000) translate(-33.306991, -10.495441) translate(25.806991, 0.495441)">
                    <path d="M4.25388294,0 L7.6391413,0 C11.5861307,0 14.7857978,3.19966712 14.7857978,7.14665653 L14.7857978,7.52279635 L4.25388294,7.52279635 C2.17652009,7.52279635 0.492484768,5.83876103 0.492484768,3.76139818 C0.492484768,1.68403533 2.17652009,0 4.25388294,0 Z" id="Rectangle" fill="#000000"></path>
                    <path d="M12.0661387,1.50455927 C15.1009229,3.75901025 15.7335081,8.04678259 13.4790571,11.0815668 C13.3935974,11.1966066 13.3045462,11.3089344 13.2120352,11.4183839 L7.94430041,17.650624 C6.62169744,19.2153913 4.31057558,19.482524 2.66588631,18.2607333 C1.14849418,17.1335078 0.83220162,14.9896216 1.95942711,13.4722295 C2.00215693,13.4147096 2.04668253,13.3585457 2.09293807,13.3038209 L12.0661387,1.50455927 Z" id="Rectangle-Copy" fill="#00C7C7"></path>
                </g>
                <g id="Group-Copy-3" transform="translate(33.504559, 33.306991) rotate(270.000000) translate(-33.504559, -33.306991) translate(26.004559, 23.306991)">
                    <path d="M4.25388294,4.54747351e-13 L7.6391413,4.54747351e-13 C11.5861307,4.54747351e-13 14.7857978,3.19966712 14.7857978,7.14665653 L14.7857978,7.52279635 L4.25388294,7.52279635 C2.17652009,7.52279635 0.492484768,5.83876103 0.492484768,3.76139818 C0.492484768,1.68403533 2.17652009,4.54747351e-13 4.25388294,4.54747351e-13 Z" id="Rectangle" fill="#000000"></path>
                    <path d="M2.09293807,13.3038209 L12.0661387,1.50455927 C15.1009229,3.75901025 15.7335081,8.04678259 13.4790571,11.0815668 C13.3935974,11.1966066 13.3045462,11.3089344 13.2120352,11.4183839 L7.94430041,17.650624 C6.62169744,19.2153913 4.31057558,19.482524 2.66588631,18.2607333 C1.14849418,17.1335078 0.83220162,14.9896216 1.95942711,13.4722295 C2.00215693,13.4147096 2.04668253,13.3585457 2.09293807,13.3038209 L2.09293807,13.3038209 Z" id="Rectangle-Copy" fill="#00C7C7"></path>
                </g>
            </g>
        </g>
    </g>
</svg>